<?xml version="1.0" encoding="UTF-8" standalone="no"?>
<svg
   xmlns:dc="http://purl.org/dc/elements/1.1/"
   xmlns:cc="http://creativecommons.org/ns#"
   xmlns:rdf="http://www.w3.org/1999/02/22-rdf-syntax-ns#"
   xmlns:svg="http://www.w3.org/2000/svg"
   xmlns="http://www.w3.org/2000/svg"
   xmlns:sodipodi="http://sodipodi.sourceforge.net/DTD/sodipodi-0.dtd"
   xmlns:inkscape="http://www.inkscape.org/namespaces/inkscape"
   version="1.1"
   baseProfile="full"
   id="body"
   width="8in"
   height="8in"
   viewBox="0 0 1 1"
   preserveAspectRatio="none"
   sodipodi:version="0.32"
   inkscape:version="0.46"
   sodipodi:docname="USCMS-logo.svg"
   inkscape:output_extension="org.inkscape.output.svg.inkscape">
  <metadata
     id="metadata126">
    <rdf:RDF>
      <cc:Work
         rdf:about="">
        <dc:format>image/svg+xml</dc:format>
        <dc:type
           rdf:resource="http://purl.org/dc/dcmitype/StillImage" />
      </cc:Work>
    </rdf:RDF>
  </metadata>
  <defs
     id="defs124">
    <inkscape:perspective
       sodipodi:type="inkscape:persp3d"
       inkscape:vp_x="0 : 360 : 1"
       inkscape:vp_y="0 : 1000 : 0"
       inkscape:vp_z="720 : 360 : 1"
       inkscape:persp3d-origin="360 : 240 : 1"
       id="perspective128" />
  </defs>
  <sodipodi:namedview
     inkscape:window-height="642"
     inkscape:window-width="640"
     inkscape:pageshadow="2"
     inkscape:pageopacity="0.0"
     guidetolerance="10.0"
     gridtolerance="10.0"
     objecttolerance="10.0"
     borderopacity="1.0"
     bordercolor="#666666"
     pagecolor="#ffffff"
     id="base"
     showgrid="false"
     inkscape:zoom="0.59722222"
     inkscape:cx="360"
     inkscape:cy="360"
     inkscape:window-x="145"
     inkscape:window-y="49"
     inkscape:current-layer="body" />
  <title
     id="title3">SVG drawing</title>
  <desc
     id="desc5">This was produced by version 4.2 of GNU libplot, a free library for exporting 2-D vector graphics.</desc>
  <rect
     id="background"
     x="0"
     y="0"
     width="1"
     height="1"
     stroke="none"
     fill="white" />
  <g
     id="content"
     transform="translate(-0.03125,1.1875) scale(1,-1) scale(0.0017361) "
     xml:space="preserve"
     stroke="black"
     stroke-linecap="butt"
     stroke-linejoin="miter"
     stroke-miterlimit="10.433"
     stroke-dasharray="none"
     stroke-dashoffset="0"
     stroke-opacity="1"
     fill="none"
     fill-rule="even-odd"
     fill-opacity="1"
     font-style="normal"
     font-variant="normal"
     font-weight="normal"
     font-stretch="normal"
     font-size-adjust="none"
     letter-spacing="normal"
     word-spacing="normal"
     text-anchor="start">
<polygon
   points="503.39,516.71 503.48,349.61 336.17,349.61 336.09,516.71 "
   stroke="#f8dfc6"
   stroke-width="0"
   fill="#f8dfc6"
   fill-rule="nonzero"
   id="polygon9" />
<path
   d="M336.06,349.54 L336.18,349.54 L336.54,349.54 L337.13,349.54 L337.94,349.54 L338.97,349.54 L340.2,349.54 L341.64,349.54 L343.27,349.54 L345.08,349.54 L347.06,349.54 L349.22,349.54 L351.54,349.55 L354.01,349.55 L356.62,349.55 L359.38,349.55 L362.26,349.55 L368.39,349.56 L374.95,349.56 L381.87,349.57 L389.1,349.57 L396.58,349.57 L404.24,349.58 L419.86,349.59 L435.48,349.6 L443.13,349.61 L450.59,349.61 L457.81,349.61 L464.72,349.62 L471.26,349.62 L477.36,349.63 L480.23,349.63 L482.97,349.63 L485.58,349.63 L488.03,349.63 L490.33,349.64 L492.47,349.64 L494.44,349.64 L496.23,349.64 L497.84,349.64 L499.25,349.64 L500.47,349.64 L501.47,349.64 L502.26,349.64 L502.83,349.64 L503.17,349.64 L503.26,349.64 C502.73,349.64,503.2,349.64,502.97,353.11 C494.15,486.84,384.81,516.08,336.34,516.4 C336.15,516.4,336.06,516.39,336.06,516.39 Z "
   stroke="#00f0ff"
   stroke-width="0"
   fill="#00f0ff"
   fill-rule="nonzero"
   id="path11" />
<path
   d="M336.06,349.54 L336.18,349.54 L336.54,349.54 L337.13,349.54 L337.94,349.54 L338.97,349.54 L340.2,349.54 L341.64,349.54 L343.27,349.54 L345.08,349.54 L347.06,349.54 L349.22,349.54 L351.54,349.55 L354.01,349.55 L356.62,349.55 L359.38,349.55 L362.26,349.55 L368.39,349.56 L374.95,349.56 L381.87,349.57 L389.1,349.57 L396.58,349.57 L404.24,349.58 L419.86,349.59 L435.48,349.6 L443.13,349.61 L450.59,349.61 L457.81,349.61 L464.72,349.62 L471.26,349.62 L477.36,349.63 L480.23,349.63 L482.97,349.63 L485.58,349.63 L488.03,349.63 L490.33,349.64 L492.47,349.64 L494.44,349.64 L496.23,349.64 L497.84,349.64 L499.25,349.64 L500.47,349.64 L501.47,349.64 L502.26,349.64 L502.83,349.64 L503.17,349.64 L503.26,349.64 C502.73,349.64,503.2,349.64,502.97,353.11 C494.15,486.84,384.81,516.08,336.34,516.4 C336.15,516.4,336.06,516.39,336.06,516.39 Z "
   stroke="#858585"
   stroke-width="0.5"
   id="path13" />
<path
   d="M336.21,446.66 L336.21,446.66 L336.21,446.66 L336.22,446.65 L336.23,446.65 L336.25,446.65 L336.27,446.65 L336.3,446.65 L336.33,446.64 L336.36,446.64 L336.4,446.64 L336.44,446.63 L336.49,446.63 L336.54,446.62 L336.59,446.62 L336.64,446.61 L336.7,446.61 L336.76,446.6 L336.82,446.6 L336.89,446.59 L336.95,446.58 L337.02,446.58 L337.09,446.57 L337.17,446.57 L337.24,446.56 L337.32,446.56 L337.47,446.55 L337.62,446.54 L337.78,446.53 L337.94,446.52 C374.75,445.24,430.61,418.49,432.96,351.5 C433.04,349.46,433.09,349.51,433.09,349.51 C323.57,349.51,336.15,349.52,336.15,349.52 Z "
   stroke="#ffc30c"
   stroke-width="0"
   fill="#ffc30c"
   fill-rule="nonzero"
   id="path15" />
<path
   d="M336.21,446.66 L336.21,446.66 L336.21,446.66 L336.22,446.65 L336.23,446.65 L336.25,446.65 L336.27,446.65 L336.3,446.65 L336.33,446.64 L336.36,446.64 L336.4,446.64 L336.44,446.63 L336.49,446.63 L336.54,446.62 L336.59,446.62 L336.64,446.61 L336.7,446.61 L336.76,446.6 L336.82,446.6 L336.89,446.59 L336.95,446.58 L337.02,446.58 L337.09,446.57 L337.17,446.57 L337.24,446.56 L337.32,446.56 L337.47,446.55 L337.62,446.54 L337.78,446.53 L337.94,446.52 C374.75,445.24,430.61,418.49,432.96,351.5 C433.04,349.46,433.09,349.51,433.09,349.51 C323.57,349.51,336.15,349.52,336.15,349.52 Z "
   stroke="#858585"
   stroke-width="0.5"
   id="path17" />
<path
   d="M336.14,414.27 L336.14,414.27 L336.14,414.27 L336.15,414.27 L336.16,414.27 L336.18,414.26 L336.2,414.26 L336.22,414.26 L336.24,414.25 L336.27,414.25 L336.3,414.24 L336.33,414.23 L336.37,414.23 L336.41,414.22 L336.45,414.22 L336.5,414.21 L336.55,414.2 L336.6,414.19 L336.66,414.19 L336.71,414.18 L336.77,414.17 L336.84,414.17 L336.91,414.16 L336.98,414.15 L337.05,414.15 L337.13,414.14 L337.2,414.13 L337.29,414.13 L337.37,414.12 L337.46,414.12 L337.55,414.12 L337.64,414.11 L337.74,414.11 C350.35,413.78,397.87,404.36,400.43,350 C400.5,348.64,400.41,349.51,400.41,349.51 C327.12,349.51,336.15,349.52,336.15,349.52 Z "
   stroke="#f0eeff"
   stroke-width="0"
   fill="#f0eeff"
   fill-rule="nonzero"
   id="path19" />
<path
   d="M336.14,414.27 L336.14,414.27 L336.14,414.27 L336.15,414.27 L336.16,414.27 L336.18,414.26 L336.2,414.26 L336.22,414.26 L336.24,414.25 L336.27,414.25 L336.3,414.24 L336.33,414.23 L336.37,414.23 L336.41,414.22 L336.45,414.22 L336.5,414.21 L336.55,414.2 L336.6,414.19 L336.66,414.19 L336.71,414.18 L336.77,414.17 L336.84,414.17 L336.91,414.16 L336.98,414.15 L337.05,414.15 L337.13,414.14 L337.2,414.13 L337.29,414.13 L337.37,414.12 L337.46,414.12 L337.55,414.12 L337.64,414.11 L337.74,414.11 C350.35,413.78,397.87,404.36,400.43,350 C400.5,348.64,400.41,349.51,400.41,349.51 C327.12,349.51,336.15,349.52,336.15,349.52 Z "
   stroke="#858585"
   stroke-width="0.5"
   id="path21" />
<path
   d="M336.14,388.1 L336.17,388.1 L336.24,388.11 L336.37,388.11 L336.54,388.11 L336.76,388.12 L337.02,388.12 L337.33,388.12 L337.67,388.11 L338.48,388.08 L339.44,388.02 L340.53,387.93 L341.74,387.79 L343.06,387.59 L344.48,387.34 L345.98,387.02 L347.55,386.62 L349.18,386.14 L350.86,385.57 L352.57,384.89 L354.31,384.11 L356.05,383.21 L357.8,382.18 L359.53,381.03 L361.23,379.73 L362.06,379.02 L362.89,378.28 L363.7,377.5 L364.5,376.68 L365.28,375.82 L366.04,374.91 L366.79,373.96 L367.51,372.97 L368.21,371.93 L368.89,370.85 L369.54,369.72 L370.17,368.54 L370.76,367.31 L371.33,366.03 L371.86,364.7 L372.37,363.32 L372.83,361.89 L373.26,360.4 L373.66,358.85 L374.01,357.25 L374.33,355.6 L374.6,353.88 L374.82,352.11 L375,350.27 C375.07,349.47,375.07,349.47,375.07,349.47 C331.71,349.47,336.14,349.45,336.14,349.45 Z "
   stroke="#bfbfff"
   stroke-width="0"
   fill="#bfbfff"
   fill-rule="nonzero"
   id="path23" />
<path
   d="M336.14,388.1 L336.17,388.1 L336.24,388.11 L336.37,388.11 L336.54,388.11 L336.76,388.12 L337.02,388.12 L337.33,388.12 L337.67,388.11 L338.48,388.08 L339.44,388.02 L340.53,387.93 L341.74,387.79 L343.06,387.59 L344.48,387.34 L345.98,387.02 L347.55,386.62 L349.18,386.14 L350.86,385.57 L352.57,384.89 L354.31,384.11 L356.05,383.21 L357.8,382.18 L359.53,381.03 L361.23,379.73 L362.06,379.02 L362.89,378.28 L363.7,377.5 L364.5,376.68 L365.28,375.82 L366.04,374.91 L366.79,373.96 L367.51,372.97 L368.21,371.93 L368.89,370.85 L369.54,369.72 L370.17,368.54 L370.76,367.31 L371.33,366.03 L371.86,364.7 L372.37,363.32 L372.83,361.89 L373.26,360.4 L373.66,358.85 L374.01,357.25 L374.33,355.6 L374.6,353.88 L374.82,352.11 L375,350.27 C375.07,349.47,375.07,349.47,375.07,349.47 C331.71,349.47,336.14,349.45,336.14,349.45 Z "
   stroke="#858585"
   stroke-width="0.5"
   id="path25" />
<path
   d="M378.86,462.55 L378.54,462.35 L378.23,462.16 L377.9,461.98 L377.58,461.8 L377.25,461.63 L376.91,461.47 L376.22,461.17 L375.52,460.89 L374.8,460.65 L374.08,460.43 L373.34,460.24 L372.59,460.08 L371.84,459.94 L371.09,459.83 L370.33,459.73 L369.57,459.66 L368.81,459.62 L368.06,459.59 L367.31,459.58 C355.83,459.58,348.93,466.84,348.93,478.27 C348.93,490.02,357.6,496.71,368.62,496.71 C372.43,496.71,376.35,495.82,379.85,494.3 C379.32,493,379.01,491.64,378.75,490.29 L378.38,490.23 C377.65,491.17,373.79,494.72,368.41,494.72 C358.8,494.72,354.05,486.94,354.05,478.07 C354.05,468.04,359.79,461.62,368.05,461.62 C373.68,461.62,378.07,464.96,379.12,465.85 Z "
   stroke="#0019e6"
   stroke-width="0"
   fill="#0019e6"
   fill-rule="nonzero"
   id="path27" />
<path
   d="M378.86,462.55 L378.54,462.35 L378.23,462.16 L377.9,461.98 L377.58,461.8 L377.25,461.63 L376.91,461.47 L376.22,461.17 L375.52,460.89 L374.8,460.65 L374.08,460.43 L373.34,460.24 L372.59,460.08 L371.84,459.94 L371.09,459.83 L370.33,459.73 L369.57,459.66 L368.81,459.62 L368.06,459.59 L367.31,459.58 C355.83,459.58,348.93,466.84,348.93,478.27 C348.93,490.02,357.6,496.71,368.62,496.71 C372.43,496.71,376.35,495.82,379.85,494.3 C379.32,493,379.01,491.64,378.75,490.29 L378.38,490.23 C377.65,491.17,373.79,494.72,368.41,494.72 C358.8,494.72,354.05,486.94,354.05,478.07 C354.05,468.04,359.79,461.62,368.05,461.62 C373.68,461.62,378.07,464.96,379.12,465.85 Z "
   stroke="white"
   stroke-width="1"
   id="path29" />
<path
   d="M421.36,495.92 L421.88,491.09 L422.4,486.3 L422.92,481.58 L423.19,479.26 L423.46,476.97 L423.72,474.71 L423.99,472.49 L424.26,470.31 L424.53,468.18 L424.79,466.1 L425.06,464.08 L425.33,462.11 L425.59,460.21 C424.65,460.26,423.92,460.36,423.14,460.36 C422.3,460.36,421.46,460.26,420.68,460.21 C419.8,470.7,418.75,481.98,418.02,487.15 C411.96,476.34,407.47,467.99,404.34,460.78 H403.77 L400.89,466.68 C397.55,473.57,393.89,480.36,390.34,487.15 C389.2,476.97,387.79,466.63,387.79,460.21 C387.11,460.26,386.53,460.36,385.96,460.36 C385.28,460.36,384.7,460.26,384.08,460.21 C385.43,468.61,388.57,490.44,389.09,495.92 H390.45 C394.62,487.62,399.64,477.8,405.23,468.56 C410.19,477.49,414.99,486.58,420.27,495.92 Z "
   stroke="#0019e6"
   stroke-width="0"
   fill="#0019e6"
   fill-rule="nonzero"
   id="path31" />
<path
   d="M421.36,495.92 L421.88,491.09 L422.4,486.3 L422.92,481.58 L423.19,479.26 L423.46,476.97 L423.72,474.71 L423.99,472.49 L424.26,470.31 L424.53,468.18 L424.79,466.1 L425.06,464.08 L425.33,462.11 L425.59,460.21 C424.65,460.26,423.92,460.36,423.14,460.36 C422.3,460.36,421.46,460.26,420.68,460.21 C419.8,470.7,418.75,481.98,418.02,487.15 C411.96,476.34,407.47,467.99,404.34,460.78 H403.77 L400.89,466.68 C397.55,473.57,393.89,480.36,390.34,487.15 C389.2,476.97,387.79,466.63,387.79,460.21 C387.11,460.26,386.53,460.36,385.96,460.36 C385.28,460.36,384.7,460.26,384.08,460.21 C385.43,468.61,388.57,490.44,389.09,495.92 H390.45 C394.62,487.62,399.64,477.8,405.23,468.56 C410.19,477.49,414.99,486.58,420.27,495.92 Z "
   stroke="white"
   stroke-width="1"
   id="path33" />
<path
   d="M432.06,467.25 L432.25,466.94 L432.45,466.64 L432.65,466.35 L432.84,466.06 L433.05,465.78 L433.25,465.51 L433.46,465.25 L433.67,465 L433.89,464.75 L434.11,464.51 L434.33,464.29 L434.56,464.07 L434.8,463.86 L435.03,463.66 L435.28,463.47 L435.53,463.29 L435.79,463.12 L436.05,462.95 L436.32,462.8 L436.59,462.66 L436.88,462.53 L437.17,462.41 L437.46,462.3 L437.77,462.2 L438.08,462.12 L438.4,462.04 L438.73,461.97 L439.07,461.92 L439.42,461.88 L439.78,461.85 L440.15,461.83 L440.52,461.82 C444.75,461.82,447.78,465.32,447.78,469.45 C447.78,479.16,431.44,474.88,431.44,486.68 C431.44,493.42,436.77,496.71,443.03,496.71 C445.54,496.71,448.57,495.92,450.5,494.2 C449.87,492.84,449.5,491.38,449.09,489.92 H448.57 C447.47,492.74,445.17,494.46,442.09,494.46 C438.49,494.46,435.51,492.06,435.51,488.35 C435.51,478.74,451.96,482.61,451.96,471.48 C451.96,464.02,446.16,459.58,439.06,459.58 C436.5,459.58,432.32,460.68,430.55,462.61 C431.07,464.12,431.33,465.69,431.54,467.25 Z "
   stroke="#0019e6"
   stroke-width="0"
   fill="#0019e6"
   fill-rule="nonzero"
   id="path35" />
<path
   d="M432.06,467.25 L432.25,466.94 L432.45,466.64 L432.65,466.35 L432.84,466.06 L433.05,465.78 L433.25,465.51 L433.46,465.25 L433.67,465 L433.89,464.75 L434.11,464.51 L434.33,464.29 L434.56,464.07 L434.8,463.86 L435.03,463.66 L435.28,463.47 L435.53,463.29 L435.79,463.12 L436.05,462.95 L436.32,462.8 L436.59,462.66 L436.88,462.53 L437.17,462.41 L437.46,462.3 L437.77,462.2 L438.08,462.12 L438.4,462.04 L438.73,461.97 L439.07,461.92 L439.42,461.88 L439.78,461.85 L440.15,461.83 L440.52,461.82 C444.75,461.82,447.78,465.32,447.78,469.45 C447.78,479.16,431.44,474.88,431.44,486.68 C431.44,493.42,436.77,496.71,443.03,496.71 C445.54,496.71,448.57,495.92,450.5,494.2 C449.87,492.84,449.5,491.38,449.09,489.92 H448.57 C447.47,492.74,445.17,494.46,442.09,494.46 C438.49,494.46,435.51,492.06,435.51,488.35 C435.51,478.74,451.96,482.61,451.96,471.48 C451.96,464.02,446.16,459.58,439.06,459.58 C436.5,459.58,432.32,460.68,430.55,462.61 C431.07,464.12,431.33,465.69,431.54,467.25 Z "
   stroke="white"
   stroke-width="1"
   id="path37" />
<path
   d="M336.13,386.17 L336.16,386.17 L336.23,386.17 L336.35,386.18 L336.51,386.18 L336.72,386.18 L336.97,386.18 L337.26,386.18 L337.59,386.17 L338.36,386.15 L339.27,386.09 L340.3,386 L341.45,385.87 L342.71,385.69 L344.05,385.45 L345.48,385.14 L346.97,384.76 L348.52,384.31 L350.12,383.76 L351.74,383.12 L353.39,382.37 L355.05,381.52 L356.71,380.55 L358.35,379.45 L359.97,378.21 L360.76,377.54 L361.54,376.84 L362.31,376.1 L363.07,375.32 L363.81,374.5 L364.54,373.64 L365.25,372.74 L365.93,371.79 L366.6,370.81 L367.24,369.78 L367.86,368.71 L368.46,367.59 L369.03,366.42 L369.56,365.2 L370.07,363.94 L370.55,362.63 L370.99,361.27 L371.4,359.85 L371.78,358.39 L372.11,356.87 L372.41,355.29 L372.67,353.66 L372.88,351.98 L373.05,350.23 C373.12,349.47,373.12,349.47,373.12,349.47 C331.92,349.47,336.13,349.45,336.13,349.45 Z "
   stroke="#2af825"
   stroke-width="0"
   fill="#2af825"
   fill-rule="nonzero"
   id="path39" />
<path
   d="M336.13,386.17 L336.16,386.17 L336.23,386.17 L336.35,386.18 L336.51,386.18 L336.72,386.18 L336.97,386.18 L337.26,386.18 L337.59,386.17 L338.36,386.15 L339.27,386.09 L340.3,386 L341.45,385.87 L342.71,385.69 L344.05,385.45 L345.48,385.14 L346.97,384.76 L348.52,384.31 L350.12,383.76 L351.74,383.12 L353.39,382.37 L355.05,381.52 L356.71,380.55 L358.35,379.45 L359.97,378.21 L360.76,377.54 L361.54,376.84 L362.31,376.1 L363.07,375.32 L363.81,374.5 L364.54,373.64 L365.25,372.74 L365.93,371.79 L366.6,370.81 L367.24,369.78 L367.86,368.71 L368.46,367.59 L369.03,366.42 L369.56,365.2 L370.07,363.94 L370.55,362.63 L370.99,361.27 L371.4,359.85 L371.78,358.39 L372.11,356.87 L372.41,355.29 L372.67,353.66 L372.88,351.98 L373.05,350.23 C373.12,349.47,373.12,349.47,373.12,349.47 C331.92,349.47,336.13,349.45,336.13,349.45 Z "
   stroke="#858585"
   stroke-width="0.5"
   id="path41" />
<path
   d="M336.12,368.77 L336.13,368.77 L336.17,368.78 L336.23,368.78 L336.32,368.78 L336.43,368.78 L336.56,368.78 L336.71,368.78 L336.89,368.78 L337.29,368.76 L337.77,368.73 L338.31,368.69 L338.92,368.62 L339.58,368.52 L340.29,368.39 L341.04,368.23 L341.82,368.03 L342.64,367.79 L343.48,367.51 L344.34,367.17 L345.21,366.78 L346.08,366.33 L346.95,365.81 L347.81,365.24 L348.66,364.59 L349.08,364.23 L349.49,363.86 L349.9,363.47 L350.3,363.06 L350.69,362.63 L351.07,362.18 L351.44,361.7 L351.81,361.21 L352.16,360.69 L352.5,360.15 L352.82,359.58 L353.13,358.99 L353.43,358.38 L353.72,357.74 L353.98,357.07 L354.24,356.38 L354.47,355.67 L354.68,354.92 L354.88,354.15 L355.06,353.35 L355.22,352.52 L355.35,351.66 L355.46,350.78 L355.55,349.86 C355.59,349.46,355.59,349.46,355.59,349.46 C333.91,349.46,336.12,349.45,336.12,349.45 Z "
   stroke="#70ff11"
   stroke-width="0"
   fill="#70ff11"
   fill-rule="nonzero"
   id="path43" />
<path
   d="M336.12,368.77 L336.13,368.77 L336.17,368.78 L336.23,368.78 L336.32,368.78 L336.43,368.78 L336.56,368.78 L336.71,368.78 L336.89,368.78 L337.29,368.76 L337.77,368.73 L338.31,368.69 L338.92,368.62 L339.58,368.52 L340.29,368.39 L341.04,368.23 L341.82,368.03 L342.64,367.79 L343.48,367.51 L344.34,367.17 L345.21,366.78 L346.08,366.33 L346.95,365.81 L347.81,365.24 L348.66,364.59 L349.08,364.23 L349.49,363.86 L349.9,363.47 L350.3,363.06 L350.69,362.63 L351.07,362.18 L351.44,361.7 L351.81,361.21 L352.16,360.69 L352.5,360.15 L352.82,359.58 L353.13,358.99 L353.43,358.38 L353.72,357.74 L353.98,357.07 L354.24,356.38 L354.47,355.67 L354.68,354.92 L354.88,354.15 L355.06,353.35 L355.22,352.52 L355.35,351.66 L355.46,350.78 L355.55,349.86 C355.59,349.46,355.59,349.46,355.59,349.46 C333.91,349.46,336.12,349.45,336.12,349.45 Z "
   stroke="#858585"
   stroke-width="0.5"
   id="path45" />
<path
   d="M336.12,359.53 L336.13,359.53 L336.15,359.53 L336.18,359.53 L336.23,359.53 L336.28,359.53 L336.35,359.53 L336.43,359.53 L336.52,359.53 L336.73,359.52 L336.98,359.51 L337.27,359.48 L337.58,359.44 L337.93,359.39 L338.3,359.33 L338.69,359.25 L339.1,359.14 L339.52,359.02 L339.96,358.87 L340.41,358.69 L340.86,358.49 L341.32,358.25 L341.77,357.98 L342.22,357.68 L342.66,357.34 L342.88,357.16 L343.1,356.97 L343.31,356.76 L343.52,356.55 L343.72,356.32 L343.92,356.09 L344.11,355.84 L344.3,355.58 L344.49,355.31 L344.66,355.03 L344.83,354.73 L345,354.43 L345.15,354.11 L345.3,353.77 L345.44,353.43 L345.57,353.07 L345.69,352.69 L345.8,352.3 L345.91,351.9 L346,351.48 L346.08,351.05 L346.15,350.61 L346.21,350.14 L346.26,349.66 C346.27,349.45,346.27,349.45,346.27,349.45 C334.96,349.45,336.12,349.45,336.12,349.45 Z "
   stroke="#a5f379"
   stroke-width="0"
   fill="#a5f379"
   fill-rule="nonzero"
   id="path47" />
<path
   d="M336.12,359.53 L336.13,359.53 L336.15,359.53 L336.18,359.53 L336.23,359.53 L336.28,359.53 L336.35,359.53 L336.43,359.53 L336.52,359.53 L336.73,359.52 L336.98,359.51 L337.27,359.48 L337.58,359.44 L337.93,359.39 L338.3,359.33 L338.69,359.25 L339.1,359.14 L339.52,359.02 L339.96,358.87 L340.41,358.69 L340.86,358.49 L341.32,358.25 L341.77,357.98 L342.22,357.68 L342.66,357.34 L342.88,357.16 L343.1,356.97 L343.31,356.76 L343.52,356.55 L343.72,356.32 L343.92,356.09 L344.11,355.84 L344.3,355.58 L344.49,355.31 L344.66,355.03 L344.83,354.73 L345,354.43 L345.15,354.11 L345.3,353.77 L345.44,353.43 L345.57,353.07 L345.69,352.69 L345.8,352.3 L345.91,351.9 L346,351.48 L346.08,351.05 L346.15,350.61 L346.21,350.14 L346.26,349.66 C346.27,349.45,346.27,349.45,346.27,349.45 C334.96,349.45,336.12,349.45,336.12,349.45 Z "
   stroke="#858585"
   stroke-width="0.5"
   id="path49" />
<path
   d="M337.53,351.02 L337.59,351.14 L337.76,351.5 L338.06,352.09 L338.49,352.89 L339.04,353.89 L339.72,355.08 L340.54,356.44 L341.49,357.95 L342.58,359.61 L343.81,361.41 L345.18,363.32 L346.7,365.33 L348.37,367.44 L350.18,369.62 L352.16,371.87 L354.29,374.17 L356.58,376.5 L359.03,378.86 L361.64,381.23 L364.42,383.59 L367.38,385.94 L370.5,388.26 L373.8,390.53 L377.28,392.75 L380.94,394.9 L384.78,396.96 L388.81,398.92 L393.03,400.78 L397.44,402.51 L402.04,404.1 L406.84,405.54 L411.84,406.81 C443.17,414.11,473.13,430.94,486.83,446.92 "
   stroke="#f8dfc6"
   stroke-width="9"
   stroke-linecap="round"
   stroke-linejoin="round"
   id="path51" />
<path
   d="M484.34,487.19 L484.25,487.08 L483.96,486.74 L483.48,486.2 L482.81,485.45 L481.96,484.51 L480.92,483.39 L479.71,482.08 L478.32,480.61 L476.75,478.99 L475.01,477.21 L473.11,475.29 L471.04,473.24 L468.81,471.07 L466.41,468.78 L463.86,466.39 L461.15,463.9 L458.29,461.32 L455.28,458.66 L452.13,455.94 L448.83,453.15 L445.39,450.31 L441.81,447.42 L438.09,444.5 L434.24,441.56 L430.26,438.59 L426.16,435.62 L421.92,432.65 L417.57,429.69 L413.09,426.75 L408.5,423.83 L403.79,420.95 L398.97,418.11 C346.38,387.78,337.53,351.02,337.53,351.02 "
   stroke="#f8dfc6"
   stroke-width="9"
   stroke-linecap="round"
   stroke-linejoin="round"
   id="path53" />
<path
   d="M337.53,351.02 L337.54,351.04 L337.59,351.12 L337.67,351.25 L337.78,351.43 L337.93,351.66 L338.1,351.93 L338.55,352.61 L339.13,353.44 L339.84,354.43 L340.67,355.54 L341.63,356.78 L342.73,358.12 L343.95,359.55 L345.3,361.06 L346.78,362.63 L348.39,364.25 L350.13,365.91 L352,367.59 L354,369.27 L356.12,370.95 L358.38,372.6 L360.77,374.22 L363.29,375.79 L365.94,377.29 L368.72,378.72 L371.63,380.06 L374.67,381.29 L377.84,382.4 L381.14,383.38 L384.58,384.21 L388.14,384.88 L389.97,385.15 L391.84,385.37 L393.73,385.54 L395.66,385.67 L397.63,385.75 L399.62,385.77 L401.65,385.74 L403.71,385.65 C438.65,383.68,470.14,397.3,479.99,417.66 "
   stroke="#f8dfc6"
   stroke-width="9"
   stroke-linecap="round"
   stroke-linejoin="round"
   id="path55" />
<path
   d="M337.53,351.02 L337.58,351.1 L337.73,351.35 L338,351.75 L338.38,352.28 L338.87,352.93 L339.48,353.7 L340.22,354.56 L341.08,355.51 L342.07,356.52 L343.2,357.59 L344.46,358.71 L345.86,359.85 L347.41,361.01 L349.1,362.18 L350.94,363.34 L352.94,364.47 L355.1,365.57 L357.42,366.62 L359.91,367.61 L362.56,368.52 L365.39,369.34 L368.39,370.07 L369.96,370.39 L371.57,370.68 L373.23,370.93 L374.93,371.16 L376.69,371.34 L378.48,371.49 L380.33,371.61 L382.23,371.68 L384.17,371.71 L386.16,371.7 L388.2,371.64 L390.29,371.53 L392.43,371.38 L394.62,371.17 L396.87,370.92 L399.16,370.61 L401.51,370.24 L403.9,369.82 L406.35,369.34 L408.86,368.8 C457.73,357.8,460.82,372.2,468.53,380.47 "
   stroke="#f8dfc6"
   stroke-width="9"
   stroke-linecap="round"
   stroke-linejoin="round"
   id="path57" />
<path
   d="M337.53,351.02 L337.59,351.14 L337.76,351.5 L338.06,352.09 L338.49,352.89 L339.04,353.89 L339.72,355.08 L340.54,356.44 L341.49,357.95 L342.58,359.61 L343.81,361.41 L345.18,363.32 L346.7,365.33 L348.37,367.44 L350.18,369.62 L352.16,371.87 L354.29,374.17 L356.58,376.5 L359.03,378.86 L361.64,381.23 L364.42,383.59 L367.38,385.94 L370.5,388.26 L373.8,390.53 L377.28,392.75 L380.94,394.9 L384.78,396.96 L388.81,398.92 L393.03,400.78 L397.44,402.51 L402.04,404.1 L406.84,405.54 L411.84,406.81 C443.17,414.11,473.13,430.94,486.83,446.92 "
   stroke="#f52211"
   stroke-width="6"
   stroke-linecap="round"
   stroke-linejoin="round"
   id="path59" />
<path
   d="M484.34,487.19 L484.25,487.08 L483.96,486.74 L483.48,486.2 L482.81,485.45 L481.96,484.51 L480.92,483.39 L479.71,482.08 L478.32,480.61 L476.75,478.99 L475.01,477.21 L473.11,475.29 L471.04,473.24 L468.81,471.07 L466.41,468.78 L463.86,466.39 L461.15,463.9 L458.29,461.32 L455.28,458.66 L452.13,455.94 L448.83,453.15 L445.39,450.31 L441.81,447.42 L438.09,444.5 L434.24,441.56 L430.26,438.59 L426.16,435.62 L421.92,432.65 L417.57,429.69 L413.09,426.75 L408.5,423.83 L403.79,420.95 L398.97,418.11 C346.38,387.78,337.53,351.02,337.53,351.02 "
   stroke="#f52211"
   stroke-width="6"
   stroke-linecap="round"
   stroke-linejoin="round"
   id="path61" />
<path
   d="M337.53,351.02 L337.54,351.04 L337.59,351.12 L337.67,351.25 L337.78,351.43 L337.93,351.66 L338.1,351.93 L338.55,352.61 L339.13,353.44 L339.84,354.43 L340.67,355.54 L341.63,356.78 L342.73,358.12 L343.95,359.55 L345.3,361.06 L346.78,362.63 L348.39,364.25 L350.13,365.91 L352,367.59 L354,369.27 L356.12,370.95 L358.38,372.6 L360.77,374.22 L363.29,375.79 L365.94,377.29 L368.72,378.72 L371.63,380.06 L374.67,381.29 L377.84,382.4 L381.14,383.38 L384.58,384.21 L388.14,384.88 L389.97,385.15 L391.84,385.37 L393.73,385.54 L395.66,385.67 L397.63,385.75 L399.62,385.77 L401.65,385.74 L403.71,385.65 C438.65,383.68,470.14,397.3,479.99,417.66 "
   stroke="#f52211"
   stroke-width="6"
   stroke-linecap="round"
   stroke-linejoin="round"
   id="path63" />
<path
   d="M337.53,351.02 L337.58,351.1 L337.73,351.35 L338,351.75 L338.38,352.28 L338.87,352.93 L339.48,353.7 L340.22,354.56 L341.08,355.51 L342.07,356.52 L343.2,357.59 L344.46,358.71 L345.86,359.85 L347.41,361.01 L349.1,362.18 L350.94,363.34 L352.94,364.47 L355.1,365.57 L357.42,366.62 L359.91,367.61 L362.56,368.52 L365.39,369.34 L368.39,370.07 L369.96,370.39 L371.57,370.68 L373.23,370.93 L374.93,371.16 L376.69,371.34 L378.48,371.49 L380.33,371.61 L382.23,371.68 L384.17,371.71 L386.16,371.7 L388.2,371.64 L390.29,371.53 L392.43,371.38 L394.62,371.17 L396.87,370.92 L399.16,370.61 L401.51,370.24 L403.9,369.82 L406.35,369.34 L408.86,368.8 C457.73,357.8,460.82,372.2,468.53,380.47 "
   stroke="#f52211"
   stroke-width="6"
   stroke-linecap="round"
   stroke-linejoin="round"
   id="path65" />
<polygon
   points="336.96,349.47 504.03,349.47 504.03,516.68 336.96,516.68 "
   stroke-width="2"
   id="polygon67" />
<polygon
   points="264.46,379.68 336.04,379.68 336.04,394.83 264.46,394.83 "
   stroke="red"
   stroke-width="0"
   fill="red"
   fill-rule="nonzero"
   id="polygon69" />
<polygon
   points="264.46,379.68 336.04,379.68 336.04,394.83 264.46,394.83 "
   stroke="red"
   stroke-width="0.25"
   id="polygon71" />
<polygon
   points="264.46,394.75 336.04,394.75 336.04,409.9 264.46,409.9 "
   stroke="white"
   stroke-width="0"
   fill="white"
   fill-rule="nonzero"
   id="polygon73" />
<polygon
   points="264.46,394.75 336.04,394.75 336.04,409.9 264.46,409.9 "
   stroke="white"
   stroke-width="0.25"
   id="polygon75" />
<polygon
   points="264.46,409.82 336.04,409.82 336.04,424.97 264.46,424.97 "
   stroke="red"
   stroke-width="0"
   fill="red"
   fill-rule="nonzero"
   id="polygon77" />
<polygon
   points="264.46,409.82 336.04,409.82 336.04,424.97 264.46,424.97 "
   stroke="red"
   stroke-width="0.25"
   id="polygon79" />
<polygon
   points="264.46,349.54 336.04,349.54 336.04,364.69 264.46,364.69 "
   stroke="red"
   stroke-width="0"
   fill="red"
   fill-rule="nonzero"
   id="polygon81" />
<polygon
   points="264.46,349.54 336.04,349.54 336.04,364.69 264.46,364.69 "
   stroke="red"
   stroke-width="0.25"
   id="polygon83" />
<polygon
   points="264.46,364.61 336.04,364.61 336.04,379.76 264.46,379.76 "
   stroke="white"
   stroke-width="0"
   fill="white"
   fill-rule="nonzero"
   id="polygon85" />
<polygon
   points="264.46,364.61 336.04,364.61 336.04,379.76 264.46,379.76 "
   stroke="white"
   stroke-width="0.25"
   id="polygon87" />
<polygon
   points="264.46,455.31 336.04,455.31 336.04,470.46 264.46,470.46 "
   stroke="white"
   stroke-width="0"
   fill="white"
   fill-rule="nonzero"
   id="polygon89" />
<polygon
   points="264.46,455.31 336.04,455.31 336.04,470.46 264.46,470.46 "
   stroke="white"
   stroke-width="0.25"
   id="polygon91" />
<polygon
   points="264.46,470.38 336.04,470.38 336.04,485.53 264.46,485.53 "
   stroke="red"
   stroke-width="0"
   fill="red"
   fill-rule="nonzero"
   id="polygon93" />
<polygon
   points="264.46,470.38 336.04,470.38 336.04,485.53 264.46,485.53 "
   stroke="red"
   stroke-width="0.25"
   id="polygon95" />
<polygon
   points="264.46,485.45 336.04,485.45 336.04,500.6 264.46,500.6 "
   stroke="white"
   stroke-width="0"
   fill="white"
   fill-rule="nonzero"
   id="polygon97" />
<polygon
   points="264.46,485.45 336.04,485.45 336.04,500.6 264.46,500.6 "
   stroke="white"
   stroke-width="0.25"
   id="polygon99" />
<polygon
   points="264.46,425.17 336.04,425.17 336.04,440.31 264.46,440.31 "
   stroke="white"
   stroke-width="0"
   fill="white"
   fill-rule="nonzero"
   id="polygon101" />
<polygon
   points="264.46,425.17 336.04,425.17 336.04,440.31 264.46,440.31 "
   stroke="white"
   stroke-width="0.25"
   id="polygon103" />
<polygon
   points="264.46,440.24 336.04,440.24 336.04,455.38 264.46,455.38 "
   stroke="red"
   stroke-width="0"
   fill="red"
   fill-rule="nonzero"
   id="polygon105" />
<polygon
   points="264.46,440.24 336.04,440.24 336.04,455.38 264.46,455.38 "
   stroke="red"
   stroke-width="0.25"
   id="polygon107" />
<polygon
   points="264.46,500.82 336.04,500.82 336.04,515.97 264.46,515.97 "
   stroke="red"
   stroke-width="0"
   fill="red"
   fill-rule="nonzero"
   id="polygon109" />
<polygon
   points="264.46,500.82 336.04,500.82 336.04,515.97 264.46,515.97 "
   stroke="red"
   stroke-width="0.25"
   id="polygon111" />
<path
   d="M311.81,467.98 L312,467.67 L312.19,467.37 L312.39,467.08 L312.59,466.79 L312.79,466.51 L313,466.24 L313.2,465.98 L313.42,465.73 L313.63,465.48 L313.85,465.25 L314.08,465.02 L314.31,464.8 L314.54,464.59 L314.78,464.39 L315.02,464.2 L315.27,464.02 L315.53,463.85 L315.79,463.68 L316.06,463.53 L316.34,463.39 L316.62,463.26 L316.91,463.14 L317.21,463.03 L317.51,462.93 L317.83,462.85 L318.15,462.77 L318.48,462.7 L318.82,462.65 L319.17,462.61 L319.52,462.58 L319.89,462.56 L320.27,462.55 C324.5,462.55,327.52,466.05,327.52,470.18 C327.52,479.89,311.18,475.61,311.18,487.41 C311.18,494.15,316.51,497.44,322.77,497.44 C325.28,497.44,328.31,496.65,330.24,494.93 C329.61,493.57,329.25,492.11,328.83,490.65 H328.31 C327.21,493.47,324.91,495.19,321.83,495.19 C318.23,495.19,315.25,492.79,315.25,489.08 C315.25,479.47,331.7,483.34,331.7,472.21 C331.7,464.75,325.91,460.31,318.8,460.31 C316.25,460.31,312.07,461.41,310.29,463.34 C310.82,464.85,311.08,466.42,311.29,467.98 Z "
   stroke="#0019e6"
   stroke-width="0"
   fill="#0019e6"
   fill-rule="nonzero"
   id="path113" />
<path
   d="M311.81,467.98 L312,467.67 L312.19,467.37 L312.39,467.08 L312.59,466.79 L312.79,466.51 L313,466.24 L313.2,465.98 L313.42,465.73 L313.63,465.48 L313.85,465.25 L314.08,465.02 L314.31,464.8 L314.54,464.59 L314.78,464.39 L315.02,464.2 L315.27,464.02 L315.53,463.85 L315.79,463.68 L316.06,463.53 L316.34,463.39 L316.62,463.26 L316.91,463.14 L317.21,463.03 L317.51,462.93 L317.83,462.85 L318.15,462.77 L318.48,462.7 L318.82,462.65 L319.17,462.61 L319.52,462.58 L319.89,462.56 L320.27,462.55 C324.5,462.55,327.52,466.05,327.52,470.18 C327.52,479.89,311.18,475.61,311.18,487.41 C311.18,494.15,316.51,497.44,322.77,497.44 C325.28,497.44,328.31,496.65,330.24,494.93 C329.61,493.57,329.25,492.11,328.83,490.65 H328.31 C327.21,493.47,324.91,495.19,321.83,495.19 C318.23,495.19,315.25,492.79,315.25,489.08 C315.25,479.47,331.7,483.34,331.7,472.21 C331.7,464.75,325.91,460.31,318.8,460.31 C316.25,460.31,312.07,461.41,310.29,463.34 C310.82,464.85,311.08,466.42,311.29,467.98 Z "
   stroke="white"
   stroke-width="1"
   id="path115" />
<path
   d="M298.95,496.43 L299.24,495.66 L299.51,494.86 L299.76,494.04 L299.98,493.2 L300.19,492.33 L300.37,491.45 L300.53,490.56 L300.67,489.65 L300.79,488.73 L300.9,487.81 L300.98,486.88 L301.05,485.95 L301.11,485.01 L301.14,484.08 L301.16,483.16 L301.17,482.24 C301.19,468.1,295.79,459.61,287.29,459.59 C278.55,459.56,273.57,470.21,273.55,483.77 C273.55,488.46,274.21,493.29,275.33,497.59 C276.3,496.95,277.31,496.57,278.32,496.25 L278.36,495.8 C278.97,496.59,277.81,489.28,277.82,483.11 C277.83,471.29,279.96,463.34,286.57,463.36 C294.03,463.38,296.08,473.96,296.07,484.11 C296.06,491.05,297.16,495.46,296.5,496.75 Z "
   stroke="#0019e6"
   stroke-width="0"
   fill="#0019e6"
   fill-rule="nonzero"
   id="path117" />
<path
   d="M298.95,496.43 L299.24,495.66 L299.51,494.86 L299.76,494.04 L299.98,493.2 L300.19,492.33 L300.37,491.45 L300.53,490.56 L300.67,489.65 L300.79,488.73 L300.9,487.81 L300.98,486.88 L301.05,485.95 L301.11,485.01 L301.14,484.08 L301.16,483.16 L301.17,482.24 C301.19,468.1,295.79,459.61,287.29,459.59 C278.55,459.56,273.57,470.21,273.55,483.77 C273.55,488.46,274.21,493.29,275.33,497.59 C276.3,496.95,277.31,496.57,278.32,496.25 L278.36,495.8 C278.97,496.59,277.81,489.28,277.82,483.11 C277.83,471.29,279.96,463.34,286.57,463.36 C294.03,463.38,296.08,473.96,296.07,484.11 C296.06,491.05,297.16,495.46,296.5,496.75 Z "
   stroke="white"
   stroke-width="1"
   id="path119" />
<polyline
   points="336.96,516.68 264,516.68 264,349.54 336.04,349.54 "
   stroke-width="2"
   id="polyline121" />
</g></svg>
